<svg width="20" height="21" viewBox="0 0 20 21" fill="none" xmlns="http://www.w3.org/2000/svg">
<path fill-rule="evenodd" clip-rule="evenodd" d="M10.0371 20.498C7.34077 20.4592 4.7672 19.3645 2.86911 17.449C1.94139 16.5131 1.20985 15.4015 0.717363 14.1792C0.22488 12.9569 -0.01863 11.6486 0.00111103 10.331C0.063513 7.70067 1.16519 5.20212 3.06511 3.382C4.9888 1.53895 7.54802 0.506954 10.2121 0.5H10.3881C12.8331 0.512135 15.1878 1.42498 17.0021 3.064L14.4571 5.38C13.3191 4.36847 11.8487 3.81105 10.3261 3.814C8.5408 3.80745 6.82245 4.49314 5.53211 5.727C4.90104 6.33009 4.39548 7.05203 4.04451 7.85126C3.69355 8.6505 3.50411 9.51126 3.48711 10.384C3.47298 11.2566 3.63204 12.1233 3.95508 12.934C4.27813 13.7447 4.75874 14.4833 5.36911 15.107C6.61725 16.3819 8.31072 17.1238 10.0941 17.177H10.2371C11.6471 17.249 13.0371 16.823 14.1541 15.977C15.2657 15.1395 16.0371 13.9284 16.3261 12.567L16.3691 12.45H10.2201V9.04H19.8981C19.9734 9.658 20.0068 10.2777 19.9981 10.899C19.8991 16.64 15.9811 20.499 10.2521 20.499L10.0371 20.498Z" fill="#949597"/>
</svg>
